<svg xmlns="http://www.w3.org/2000/svg" fill="none" viewBox="0 0 16 16">
  <g clip-path="url(#a)">
    <path fill="#000" d="M14.953 7.06 8.947 1.053c-.5-.5-1.38-.506-1.887 0l-6 6c-.52.52-.52 1.36 0 1.88l6 6c.26.26.6.387.94.387.34 0 .68-.127.94-.387l5.993-5.993a1.328 1.328 0 0 0 .02-1.88Zm-6.946 6.933-6-6 6-6 6 6-6 6Zm-2.674-6.66V10h1.334V8h2.666v1.667l2.334-2.334L9.333 5v1.667H6c-.367 0-.667.3-.667.666Z"/>
  </g>
  <defs>
    <clipPath id="a">
      <path fill="#fff" d="M0 0h16v16H0z"/>
    </clipPath>
  </defs>
</svg>
