<?xml version="1.0" encoding="UTF-8" standalone="no"?>
<!-- Created with Inkscape (http://www.inkscape.org/) -->

<svg
   version="1.1"
   id="svg1"
   viewBox="0 0 366.65323 313.5517"
   xmlns="http://www.w3.org/2000/svg"
   xmlns:svg="http://www.w3.org/2000/svg"
   preserveAspectRatio="none">
  <defs
     id="defs1" />
  <g
     id="g1"
     transform="translate(-0.91428696,0.25714209)">
    <path
       style="fill:#000000"
       d="m 198.28713,312.57398 c -1.144,-0.42011 -3.52,-1.29387 -5.28,-1.94169 -4.10956,-1.51264 -11.77837,-3.46786 -16.48,-4.2017 -4.54582,-0.70952 -16.26511,-0.81269 -20.64,-0.1817 -7.04851,1.01661 -13.96494,2.78281 -20.93418,5.34581 -2.14854,0.79014 -4.24684,1.43663 -4.66291,1.43663 -1.16014,0 -2.18309,-1.49877 -1.96023,-2.87205 0.59261,-3.65183 3.975,-7.5757 8.9717,-10.40795 4.31667,-2.4468 6.67762,-4.1024 7.42264,-5.20508 0.445,-0.65862 0.75428,-1.78597 0.90242,-3.28935 l 0.22538,-2.28729 2.53239,-2.63779 c 1.92562,-2.00576 2.79907,-3.22296 3.64534,-5.07997 1.38864,-3.04719 2.19557,-3.43128 3.84663,-1.83101 1.21588,1.17848 2.11853,1.18173 2.44489,0.009 0.40403,-1.45202 0.2943,-7.59693 -0.17531,-9.8174 -0.25368,-1.19951 -1.32492,-4.85542 -2.38054,-8.12425 -2.22583,-6.89253 -2.77828,-10.21072 -2.46274,-14.79208 0.27933,-4.05573 1.20035,-7.06442 2.58704,-8.45112 1.13625,-1.13624 1.7416,-1.14161 2.82595,-0.0251 1.65043,1.69943 2.00789,-0.47733 1.48913,-9.06809 -0.79784,-13.21258 0.18768,-22.6642 4.8283,-46.3059 3.47918,-17.72474 4.44206,-25.10508 4.458,-34.1701 0.0168,-9.55625 -0.86247,-13.17201 -3.92477,-16.13913 -2.93298,-2.84182 -10.24518,-7.38341 -17.99914,-11.17923 -5.68656,-2.78375 -8.89115,-3.9913 -14.39665,-5.42493 -5.65625,-1.47288 -8.25901,-2.56122 -10.62087,-4.44111 -1.96209,-1.56169 -2.96856,-2.96184 -5.21936,-7.26092 -0.92117,-1.75945 -2.18234,-3.89304 -2.80261,-4.741313 -1.5936,-2.179377 -5.07411,-4.525321 -8.21569,-5.537574 C 103.94983,93.190345 103.05163,93.09618 95.887121,92.85852 84.872094,92.49313 83.471477,92.084177 75.995806,87.050646 71.493428,84.019097 69.621587,83.18918 62.809765,81.20436 54.346633,78.738383 50.065855,76.736826 45.976573,73.333691 44.34358,71.974701 43.52863,71.580261 40.298525,70.585488 36.055253,69.27869 33.710403,68.705309 31.489071,68.431332 c -1.435123,-0.177007 -1.574974,-0.124623 -2.56,0.958893 -1.110412,1.221439 -2.434688,2.041094 -3.297694,2.041094 -0.290142,0 -1.022434,-0.234847 -1.627316,-0.521882 -0.929659,-0.441152 -1.378529,-0.465903 -2.901731,-0.16 -0.99107,0.199035 -2.494232,0.361882 -3.340358,0.361882 -1.355922,0 -1.591755,-0.104387 -1.98809,-0.88 -0.247323,-0.484 -0.553395,-1.361354 -0.680161,-1.949675 C 14.812358,66.97584 14.262997,66.718407 8.4619783,65.173975 3.4273023,63.83357 1.0424537,62.673989 0.92919368,61.511319 0.82359268,60.427276 1.2095717,60.006527 4.3671243,57.763688 c 2.664235,-1.892431 4.712775,-3.854573 6.5276757,-6.252369 1.172125,-1.548578 2.040225,-1.557394 5.368756,-0.05452 2.935104,1.325236 3.384489,1.271782 6.106504,-0.726361 0.895344,-0.657242 2.35896,-1.441705 3.252481,-1.743251 l 1.624583,-0.548264 0.184345,-1.863802 c 0.10139,-1.025091 0.285906,-2.087422 0.410036,-2.360736 0.321509,-0.707911 2.010605,-1.637458 2.852283,-1.569673 1.675419,0.134931 2.431033,-0.07532 4.073336,-1.133393 1.922111,-1.238347 3.041901,-1.38367 4.570585,-0.593157 0.681623,0.352481 1.731687,0.513679 3.172811,0.487066 2.07487,-0.03832 2.208044,0.007 3.624768,1.233157 1.405757,1.216674 1.567564,1.272934 3.661022,1.272934 2.034479,0 2.285608,0.07966 3.530814,1.12 0.985947,0.823735 1.64997,1.12229 2.510277,1.128657 0.643348,0.0048 2.173569,0.436762 3.400493,0.96 3.751503,1.599881 6.742116,1.008579 8.210121,-1.623297 0.616948,-1.106081 1.176912,-1.561747 2.990081,-2.433156 1.227035,-0.589712 2.460491,-1.072204 2.741013,-1.072204 0.280522,0 1.643129,0.576 3.028015,1.28 2.124202,1.079827 2.821521,1.279177 4.458988,1.274736 2.020175,-0.0055 2.289997,-0.120666 5.796972,-2.474736 1.314186,-0.882152 1.837272,-1.04 3.446415,-1.04 1.462135,0 2.456552,-0.248421 4.337352,-1.083537 1.34215,-0.595945 2.65461,-1.147389 2.91657,-1.225432 0.26196,-0.07804 -0.60204,-0.513909 -1.92,-0.968593 -4.408892,-1.521026 -12.560742,-4.704163 -13.3183,-5.200534 -0.411996,-0.26995 -0.989501,-0.857742 -1.283345,-1.306205 -0.497676,-0.759548 -0.498002,-0.891424 -0.0048,-1.925738 0.691244,-1.449555 1.591758,-1.765518 3.337001,-1.170854 2.115784,0.72092 3.255639,0.04953 6.09498,-3.590054 0.722755,-0.926456 0.831669,-0.955548 4.229024,-1.129611 3.31216,-0.169699 3.53652,-0.225956 4.47079,-1.121049 0.66145,-0.633707 1.20729,-1.678718 1.666419,-3.190389 0.41428,-1.364003 1.02881,-2.594054 1.56272,-3.128005 0.8257,-0.825746 1.05237,-0.88 3.67655,-0.88 2.59934,0 2.90896,-0.0721 4.38948,-1.022148 2.06827,-1.327203 3.05379,-1.275053 6.06625,0.321007 3.48228,1.844982 5.49299,2.2025 8.7169,1.549923 1.408,-0.285005 3.784,-0.889017 5.28,-1.342248 2.17099,-0.657725 3.26142,-0.806479 5.40235,-0.736974 l 2.68235,0.08708 1.3994,-2.784941 c 1.44014,-2.8660029 2.51285,-3.9231359 4.78325,-4.7137709 0.7643,-0.266156 1.19805,-0.785393 1.92,-2.298412 1.07052,-2.243521 2.34231,-3.25401397 4.97859,-3.95569597 3.59241,-0.956175 7.0871,-0.489443 12.47152,1.66563397 l 2.80581,1.123006 2.51766,-1.136758 c 2.92658,-1.32138797 6.56555,-2.24369797 7.71462,-1.95529997 0.44044,0.110544 1.69266,1.11057997 2.78271,2.22230097 2.14423,2.186857 2.97388,2.572632 6.22175,2.892998 2.60673,0.257124 3.20248,0.69531 3.56204,2.619927 0.42021,2.249289 0.76809,2.4617709 4.36151,2.6640079 2.05644,0.115737 3.46479,0.363313 4.14056,0.727878 0.56326,0.303866 1.16151,0.552484 1.32945,0.552484 0.16794,0 0.73573,-0.756 1.26176,-1.6799999 1.98553,-3.487708 3.52689,-4.189636 8.54468,-3.891196 2.62278,0.155993 3.54633,0.08139 5.12,-0.413599 1.62782,-0.512021 2.16348,-0.549373 3.52,-0.245452 1.96285,0.439766 3.20126,0.143111 4.4912,-1.07584 0.53416,-0.504765 1.2609,-1.072798 1.61498,-1.262296 0.99478,-0.532386 2.50212,0.378424 4.19744,2.536302 1.32821,1.690601 1.58754,1.872081 2.67508,1.872081 0.66235,0 2.11711,-0.286142 3.23279,-0.635871 2.57613,-0.807532 4.47732,-0.834186 5.16669,-0.07244 0.28456,0.31443 0.80922,1.231448 1.16591,2.037817 0.56957,1.2876019 0.912,1.5932769 2.81223,2.5103469 1.83284,0.884552 2.66141,1.077329 5.41879,1.26074 2.91007,0.193566 3.41887,0.322552 4.8,1.216846 4.23134,2.739826 4.91461,3.042094 7.5794,3.352996 6.78329,0.791412 8.80804,1.555894 9.68599,3.657132 0.38151,0.913086 0.38264,1.229073 0.008,2.126679 -0.85451,2.045118 -4.9265,4.946248 -8.40242,5.986384 -1.17683,0.352158 -1.36093,0.548108 -1.76,1.873303 -0.43542,1.445929 -0.48252,1.48568 -2.04568,1.726438 -2.4987,0.384852 -2.95957,0.524916 -3.49762,1.062964 -0.96912,0.969117 -0.61303,2.073263 1.25082,3.878552 0.96427,0.933961 1.98156,1.698111 2.26066,1.698111 0.2791,0 0.87096,-0.432 1.31525,-0.96 0.54335,-0.645738 1.10108,-0.96 1.70372,-0.96 0.78417,0 0.92248,-0.149707 1.10862,-1.2 0.37348,-2.107325 0.51628,-2.318205 2.12028,-3.13101 1.05369,-0.533948 2.10442,-1.472244 3.17693,-2.836988 2.59025,-3.296028 3.78333,-3.72941 6.26428,-2.275474 0.74755,0.43809 2.1282,0.996968 3.06812,1.24195 2.6435,0.689007 4.04004,1.36424 5.70546,2.758611 1.41751,1.186799 1.67725,1.282911 3.46706,1.282911 1.06412,0 2.28606,0.133564 2.71543,0.29681 0.60251,0.229074 1.13083,0.119532 2.31506,-0.48 2.40535,-1.217744 3.42746,-1.064294 5.22872,0.784985 0.83668,0.858988 1.98793,1.803134 2.55834,2.098103 0.57041,0.294969 1.58815,1.034147 2.26166,1.642618 1.21629,1.098852 1.2358,1.103898 2.89341,0.748404 2.08374,-0.446882 3.04638,-0.258766 5.08043,0.992802 1.52006,0.935299 1.65921,0.963776 2.50639,0.512941 0.49334,-0.262534 1.68796,-1.134184 2.65471,-1.936999 1.49271,-1.239586 1.96752,-1.459664 3.14913,-1.459664 1.12649,0 1.63948,-0.212344 2.69434,-1.115269 1.64061,-1.404296 2.97457,-1.670239 5.02078,-1.000958 1.16554,0.381228 1.79683,0.432405 2.41846,0.196058 1.33206,-0.506447 3.85664,-0.397617 4.34197,0.187174 1.02924,1.240154 3.27269,2.423137 5.34367,2.817745 3.88364,0.739995 4.65453,1.455676 4.39154,4.077068 -0.17255,1.720017 -0.13554,1.839871 0.81536,2.64 0.54787,0.461 1.11438,0.838182 1.2589,0.838182 0.14453,0 1.38859,0.936 2.76458,2.08 1.37599,1.144 2.59441,2.08 2.7076,2.08 0.1132,0 1.29665,-0.504 2.6299,-1.12 1.33325,-0.616 2.56899,-1.12 2.74608,-1.12 1.11723,0 12.83996,10.848129 12.83996,11.882001 0,0.98593 -1.77233,1.788226 -6.301,2.852334 -2.33896,0.549587 -5.01008,1.383193 -5.93583,1.852457 -1.58665,0.80428 -1.68317,0.923056 -1.68317,2.071212 0,2.739283 -2.29225,3.508895 -5.91258,1.985119 -1.58785,-0.668317 -2.20086,-0.76473 -3.79971,-0.597617 -2.5091,0.262253 -3.24155,0.04309 -5.03047,-1.505209 -1.46187,-1.265235 -1.54087,-1.291602 -3.29749,-1.10062 -4.94214,0.537314 -7.30633,1.569213 -12.51787,5.463668 -7.27753,5.438323 -10.58747,7.014496 -17.08723,8.136825 -7.53117,1.300425 -10.94178,2.132313 -14.44089,3.52231 -2.33509,0.927597 -6.61223,3.112938 -8.15376,4.166046 -1.51542,1.035273 -7.52349,4.112218 -9.28,4.752623 -2.57016,0.93705 -5.06091,1.507078 -9.92,2.270265 -8.82958,1.386806 -11.40872,2.298623 -17.6,6.222212 -4.43837,2.81272 -6.88138,3.96101 -9.65949,4.54026 -2.74069,0.57145 -4.31865,0.42919 -10.02051,-0.9034 -10.58996,-2.474995 -12.13144,-1.66736 -18.50917,9.69763 -1.88962,3.36726 -4.28838,7.22245 -5.33058,8.56709 -1.04219,1.34464 -3.12732,4.0069 -4.63361,5.91614 -5.82529,7.38366 -7.63089,13.9042 -7.63406,27.56865 -0.004,15.57318 2.78582,33.05282 9.10657,57.06537 1.03447,3.92996 1.88085,7.22827 1.88085,7.3296 0,0.10132 0.29236,-0.0804 0.64969,-0.40374 2.9862,-2.70247 7.13001,8.14366 7.82782,20.48877 0.42424,7.50533 -0.94537,16.33754 -3.5058,22.60795 -0.16606,0.40666 0.0651,0.61769 1.00636,0.9186 1.60953,0.51457 2.87687,1.7331 3.1133,2.9934 0.30005,1.59939 -0.5972,4.37403 -3.15884,9.76835 -2.68851,5.66146 -3.37253,7.72838 -3.37253,10.19082 0,1.95013 0.29758,2.67798 1.70117,4.16089 0.84241,0.89 1.20421,1.04 2.50865,1.04 1.91334,0 2.62466,0.69162 4.60758,4.48 1.04336,1.99334 2.32962,3.70311 4.8147,6.4 3.80444,4.1287 4.6079,5.42905 4.6079,7.45765 0,2.77402 -1.32489,3.03539 -6.08374,1.20018 -3.89611,-1.5025 -5.00885,-1.35786 -8.32293,1.08182 -3.37794,2.4867 -6.29802,2.97066 -9.91333,1.643 z M 165.04124,109.03132 c 1.23424,-2.14677 1.17157,-3.06922 -0.38665,-5.69211 -1.51817,-2.55545 -1.68988,-3.884494 -0.66948,-5.181723 0.42115,-0.535403 0.70202,-1.343799 0.70202,-2.020522 0,-0.95426 -0.28491,-1.403625 -1.84939,-2.916845 -1.01717,-0.98384 -2.60557,-2.412577 -3.52977,-3.17497 -2.25771,-1.86242 -2.81357,-2.73629 -2.36574,-3.71917 0.19023,-0.417517 0.85866,-0.944547 1.48539,-1.171176 0.62673,-0.226629 1.13951,-0.510716 1.13951,-0.631304 0,-0.896031 -3.65968,-5.261411 -8.82957,-10.532181 -6.35311,-6.477079 -6.99079,-7.346205 -8.6772,-11.826563 -0.43251,-1.149079 -1.85443,-4.144166 -3.15981,-6.65575 -1.30539,-2.511584 -2.37343,-4.859858 -2.37343,-5.218387 0,-0.611562 0.0728,-0.596449 1.17794,0.244415 1.7184,1.30752 3.50116,3.88597 6.01539,8.700197 1.5153,2.901476 2.80237,4.884583 4.04127,6.226733 0.99983,1.083145 1.89082,1.897355 1.97999,1.809355 0.0892,-0.088 -0.0504,-1.24 -0.31022,-2.56 -0.9745,-4.951571 -0.29648,-8.979294 2.03494,-12.088473 l 0.7862,-1.048473 -1.06275,-2.543471 c -0.58451,-1.39891 -1.18036,-2.547097 -1.3241,-2.551527 -0.14374,-0.0044 -0.72963,0.349119 -1.30199,0.785666 -3.18584,2.42996 -9.37954,2.445146 -16.11848,0.03952 -1.25341,-0.447435 -1.55577,-0.436525 -3.79848,0.137063 -2.15022,0.549933 -2.9494,0.591146 -6.79819,0.350577 -2.57989,-0.161256 -4.82887,-0.470506 -5.50562,-0.757063 -1.03257,-0.437222 -1.22655,-0.730071 -1.98995,-3.004133 l -0.84585,-2.519686 0.86995,-0.733072 0.86995,-0.733072 -0.96,-0.78753 c -1.37738,-1.129925 -1.96655,-1.234819 -3.29881,-0.587303 -0.8375,0.40705 -2.1767,0.611396 -4.60258,0.702297 l -3.4214,0.128205 1.1014,1.601145 c 0.60576,0.88063 1.10139,1.79806 1.10139,2.038734 0,0.240674 0.612,0.744651 1.36,1.119949 0.748,0.375298 2.8,2.08781 4.56,3.805583 1.80578,1.762453 3.89823,3.474863 4.80258,3.930301 l 1.60257,0.807077 2.71743,-0.919342 c 1.49458,-0.505638 2.96649,-0.922409 3.27092,-0.926157 0.32596,-0.004 0.81805,0.511752 1.19704,1.254647 1.09642,2.149148 2.51776,2.972686 5.54995,3.215683 3.10535,0.248859 3.65335,0.502361 4.86476,2.250433 0.6064,0.875036 1.54643,1.642658 2.76473,2.257651 3.5351,1.784514 3.36436,3.725089 -0.47727,5.424424 -1.11161,0.491717 -2.66651,0.764981 -5.59602,0.983467 -6.55157,0.488624 -10.43562,0.877482 -11.02549,1.103837 -0.34131,0.130974 -0.5512,0.555177 -0.5512,1.11402 0,0.834217 -0.19815,0.97892 -2.61886,1.912444 -3.59761,1.387386 -6.6816,1.916579 -11.16929,1.916579 h -3.81185 v 1.44 c 0,1.544602 0.11364,1.627363 1.49917,1.091775 0.49546,-0.191524 1.81623,-0.542105 2.93506,-0.779067 2.58671,-0.547856 3.65436,-0.230637 3.50701,1.041999 -0.0859,0.741881 -0.56126,1.123454 -3.13669,2.517809 -1.74792,0.946338 -3.41376,2.110838 -3.92736,2.745404 -0.88093,1.08842 -0.88777,1.131213 -0.55532,3.475266 0.18513,1.305301 0.44044,2.474828 0.56736,2.598947 0.12692,0.124119 1.54349,0.452249 3.14792,0.729178 4.08973,0.7059 5.58265,1.208458 8.22042,2.767237 2.82744,1.670854 6.19276,5.002303 8.69902,8.611453 2.22632,3.20602 4.40239,5.60699 5.75334,6.34794 0.83194,0.4563 1.92696,0.52085 7.69007,0.45333 4.98802,-0.0584 7.50352,0.0532 9.76,0.43313 3.9202,0.66005 9.65393,2.54352 13.29089,4.36592 3.30508,1.6561 3.34678,1.64606 4.98323,-1.20032 z m 29.19883,-6.50101 c 7.79523,-9.769897 18.01398,-13.771784 28.24603,-11.061775 6.3108,1.671448 5.8843,1.646568 8.25121,0.481341 4.62779,-2.278251 10.39398,-9.865383 10.42223,-13.713508 0.01,-1.302137 -0.82339,-2.209458 -4.74218,-5.165614 -1.82171,-1.37422 -3.45149,-2.91624 -4.17159,-3.946974 -1.11569,-1.596968 -1.28861,-1.711288 -3.09023,-2.043007 -2.57801,-0.474669 -3.98546,-1.119356 -5.57102,-2.551815 -2.24884,-2.031689 -6.13626,-2.331374 -9.27092,-0.714705 -1.84466,0.951364 -2.2035,1.021916 -5.12889,1.008388 -3.67362,-0.01699 -4.69851,-0.470468 -6.23998,-2.760961 -0.91965,-1.366529 -1.00847,-1.412901 -3.68,-1.921175 -4.76842,-0.907222 -8.69342,-2.985521 -9.16166,-4.851128 -0.25295,-1.007819 0.62368,-2.618002 1.73944,-3.194981 0.49749,-0.257267 1.65189,-0.566897 2.56533,-0.688068 1.48366,-0.196815 1.76513,-0.365605 2.63913,-1.582639 0.5492,-0.764745 1.68224,-1.745433 2.58303,-2.235705 1.49543,-0.81391 1.78214,-0.859804 4.21091,-0.674043 1.43342,0.109633 3.18222,0.281843 3.88622,0.382688 1.01435,0.145301 1.59483,0.0069 2.79698,-0.666648 2.52865,-1.416867 2.3551,-1.757906 -0.96555,-1.897417 -1.18329,-0.04971 -2.97426,-0.276589 -3.97994,-0.504167 -1.81788,-0.411373 -1.86437,-0.403031 -8,1.435666 -8.42815,2.525709 -9.04216,2.84539 -13.05149,6.79517 -3.3723,3.322211 -5.08091,4.537541 -12.30551,8.752883 -6.77649,3.953881 -8.18146,5.417357 -8.16746,8.507565 0.0121,2.666272 1.73124,5.648255 5.36817,9.311389 3.12959,3.152129 8.92456,8.08025 9.50156,8.08025 1.7285,0 10.11313,-5.246482 12.89431,-8.068311 2.25467,-2.287619 2.27426,-2.322125 4.35216,-7.665539 2.02265,-5.201327 2.94847,-6.826151 3.88952,-6.826151 1.46867,0 0.2649,8.061102 -1.9124,12.806444 -1.27327,2.775043 -2.53356,4.236768 -5.62035,6.518677 -3.00517,2.221575 -5.12,4.154269 -5.12,4.679057 0,0.221466 0.21511,0.815127 0.47803,1.319245 0.7624,1.461839 0.70444,1.669038 -1.22601,4.383014 l -0.58797,0.826624 1.67344,2.97347 c 2.05674,3.65454 4.06737,6.65347 4.4608,6.65347 0.16195,0 1.07754,-0.98145 2.03465,-2.18101 z M 98.476801,86.39132 c 0.22259,-3.000275 -0.60945,-6.129604 -2.0109,-7.56304 -0.57533,-0.588459 -2.34441,-1.711311 -3.93129,-2.495228 -4.193958,-2.071809 -4.785939,-2.776917 -3.202462,-3.814451 1.486506,-0.973996 4.387192,-0.0171 8.592832,2.834649 1.97043,1.336102 2.425959,1.283408 2.437239,-0.281931 0.003,-0.374 0.0949,-1.13 0.2049,-1.68 l 0.2,-1 h -1.972609 c -3.5441,0 -7.973369,-0.656545 -12.845952,-1.904141 l -4.785553,-1.225313 -1.357941,1.51865 c -1.283975,1.43593 -3.842313,5.532524 -4.65098,7.447482 -0.360897,0.854618 -0.30802,0.920834 2.101414,2.631563 4.66925,3.315228 8.625173,5.074466 12.551625,5.581832 3.444167,0.445047 8.635167,0.415066 8.669677,-0.05007 z M 258.12713,84.566162 c 11.69898,-0.374261 15.24345,-1.088223 21.6,-4.35089 3.93351,-2.018977 10.07392,-5.654165 11.22888,-6.647619 l 0.8555,-0.735871 -2.07764,-3.660231 c -1.1427,-2.013128 -2.75532,-4.992232 -3.5836,-6.620232 -0.82828,-1.628 -1.58093,-2.96 -1.67256,-2.96 -0.0916,0 -1.11046,0.527843 -2.26408,1.172984 -1.86826,1.04479 -2.20098,1.133921 -3.04441,0.81556 -0.83038,-0.313435 -1.15806,-0.238268 -2.66243,0.610747 l -1.71551,0.968171 -3.77207,-0.287301 c -3.25217,-0.247702 -4.05811,-0.427398 -5.84731,-1.303731 -1.14138,-0.559036 -2.29734,-1.01643 -2.5688,-1.01643 -0.95598,0 -1.99863,1.067437 -2.77813,2.844158 -0.43334,0.987713 -1.23687,2.263842 -1.78563,2.835842 -0.9406,0.980424 -1.12706,1.040069 -3.25498,1.041196 -2.33495,0.0012 -3.53895,0.464676 -5.21723,2.008183 -1.23279,1.133792 -0.94749,1.613907 0.85604,1.440611 2.14175,-0.205795 4.45298,-1.408688 7.77075,-4.044336 3.84171,-3.051872 5.43583,-3.533691 4.92234,-1.487768 -0.41513,1.653989 -5.6401,6.055882 -10.74913,9.055848 -3.25969,1.914054 -3.98828,2.676089 -5.08484,5.318266 -1.85154,4.46133 -1.65849,5.871395 0.75156,5.489366 0.71131,-0.112752 5.25328,-0.331687 10.09328,-0.486523 z M 64.943025,77.405003 c -0.502879,-0.83777 -5.280891,-4.971355 -6.278886,-5.432032 -0.809239,-0.373546 -2.01162,-0.435336 -5.885369,-0.302448 -4.718685,0.161875 -4.846345,0.184321 -4.152472,0.730122 2.59387,2.040338 7.61377,3.938221 13.026502,4.924953 3.238214,0.59032 3.60218,0.599104 3.290225,0.0794 z m 7.8217,-2.213684 c 0.647417,-0.819604 0.681966,-3.017164 0.06342,-4.034273 -1.050301,-1.727083 -1.933434,-2.078355 -4.713354,-1.874773 -2.397044,0.175543 -4.551759,0.716319 -4.543711,1.14035 0.0081,0.425489 7.959329,5.168696 8.664518,5.168696 0.117236,0 0.355341,-0.18 0.529122,-0.4 z M 246.10941,73.762102 c 0.29163,-0.759975 -0.70899,-2.24961 -2.20035,-3.275696 -0.77948,-0.536298 -1.51826,-0.975087 -1.64172,-0.975087 -0.38485,0 0.0745,2.389671 0.7551,3.92828 l 0.64967,1.468701 1.13206,-0.347437 c 0.62263,-0.191091 1.20999,-0.550533 1.30524,-0.798761 z m 68.1067,-2.106564 c 2.38289,-0.767767 6.4618,-2.927582 7.18872,-3.80649 0.28174,-0.340645 -0.78018,-0.432996 -5.75474,-0.500465 l -6.10023,-0.08274 -2.75137,1.485191 c -1.51325,0.816859 -3.39936,1.93366 -4.19136,2.481784 l -1.44,0.996589 1.12,0.220137 c 0.616,0.121075 2.992,0.172392 5.28,0.114038 3.36354,-0.08579 4.63653,-0.259635 6.64898,-0.908044 z m -74.06715,-1.062049 -0.10183,-1.24217 -2.72,-1.027599 c -1.496,-0.56518 -3.224,-1.026727 -3.84,-1.025661 l -1.12,0.0019 1.6,1.449897 c 1.76426,1.598743 5.60976,3.728852 6.02183,3.335622 0.14401,-0.137423 0.21601,-0.808836 0.16,-1.492029 z m -163.681717,0.11783 c 0.423065,-0.396 1.36561,-1.125339 2.094545,-1.620753 1.60125,-1.088276 1.73964,-1.976386 0.351241,-2.254066 -1.764179,-0.352836 -7.668662,0.689938 -7.664705,1.353642 6.59e-4,0.110647 0.657641,0.471156 1.459958,0.80113 0.802317,0.329974 1.764858,1.013974 2.138979,1.52 0.374121,0.506026 0.718595,0.920047 0.765497,0.920047 0.0469,0 0.43142,-0.324 0.854485,-0.72 z M 298.71788,68.3678 c 2.42218,-0.674099 5.93542,-1.793523 6.10929,-1.946602 0.34792,-0.306315 -2.72829,-2.989879 -3.42734,-2.989879 -0.81151,0 -3.1927,-0.900797 -5.5127,-2.085433 -2.59923,-1.327221 -5.495,-2.380033 -7.9293,-2.882852 -1.31697,-0.272027 -2.46871,-0.420374 -2.55942,-0.32966 -0.25193,0.251927 1.38211,2.582491 3.23149,4.608955 0.91148,0.998749 2.10048,2.375403 2.64222,3.059232 l 0.98499,1.243324 0.67559,-1.086783 c 0.80086,-1.288293 3.50778,-4.0001 3.75055,-3.757328 0.0933,0.09325 -0.26373,1.125104 -0.79329,2.293016 -0.91451,2.016901 -1.21687,3.696824 -0.7495,4.164196 0.35035,0.350345 1.65658,0.244389 3.57742,-0.290186 z M 159.8749,56.37271 c 4.56299,-1.234321 5.14863,-1.322108 7.5305,-1.128844 2.11593,0.171685 2.96625,0.09111 4.70465,-0.445831 1.93814,-0.598631 6.65708,-3.3507 6.65708,-3.882387 0,-0.122965 -0.828,-0.0072 -1.84,0.25729 -2.7231,0.711652 -5.7828,0.461866 -7.15531,-0.584142 -0.7941,-0.60519 -1.65611,-0.88773 -3.21762,-1.054635 -1.17311,-0.125391 -2.96833,-0.422181 -3.98939,-0.659533 -1.1302,-0.262725 -2.06105,-0.322062 -2.37941,-0.151677 -1.19117,0.637492 -4.15936,4.279013 -5.22653,6.412156 -1.11096,2.22069 -1.22671,2.962707 -0.42149,2.702135 0.21436,-0.06937 2.61625,-0.728409 5.33752,-1.464532 z m -3.66147,-10.058028 c 1.05253,-0.79015 2.0217,-1.43815 2.1537,-1.44 0.132,-0.0019 0.24,-0.117365 0.24,-0.256701 0,-0.313761 -3.36325,-1.986662 -3.99405,-1.986662 -0.57992,0 -3.36595,1.666639 -3.36595,2.013561 0,0.319555 0.92621,2.16385 1.35918,2.706439 0.5821,0.729483 1.67159,0.416378 3.60712,-1.036637 z"
       id="path1" />
  </g>
</svg>
